<svg width="24" height="24" viewBox="0 0 24 24" fill="none" xmlns="http://www.w3.org/2000/svg">
<g clip-path="url(#clip0_1118_4206)">
<path d="M12.8541 6.41989C14.0283 6.62145 15.1017 7.17692 15.9572 8.03004C16.808 8.88082 17.3658 9.95426 17.5673 11.1308C17.6447 11.5949 18.0431 11.93 18.5142 11.93C18.5752 11.93 18.6291 11.923 18.6666 11.916C18.6689 11.916 18.6713 11.916 18.6736 11.9136C18.9291 11.8714 19.1517 11.7332 19.2994 11.5199C19.447 11.3089 19.5033 11.0558 19.4588 10.805C19.1916 9.23473 18.4509 7.80504 17.3142 6.66832C16.1728 5.5316 14.7408 4.79098 13.1728 4.52614H13.1705C12.6478 4.43942 12.1533 4.79332 12.0666 5.31364C11.9845 5.83864 12.3361 6.33317 12.8541 6.41989Z" fill="#6C5DD4"/>
<path d="M18.7614 14.4656C18.2364 13.9195 17.6013 13.6312 16.9239 13.6312C16.2536 13.6312 15.6138 13.9148 15.077 14.4539L13.7435 15.7875C13.7106 15.7711 13.6778 15.7547 13.6474 15.7383L13.5794 15.7055C13.4364 15.6328 13.2724 15.5508 13.1364 15.4664C11.7677 14.5969 10.5184 13.4578 9.31376 11.9813C8.79814 11.332 8.4372 10.7812 8.17236 10.2328C8.50751 9.91641 8.81923 9.6 9.1122 9.3C9.17782 9.23437 9.24345 9.16641 9.31142 9.09844C9.37704 9.03047 9.44501 8.9625 9.51298 8.89453C10.0708 8.33672 10.3661 7.68984 10.3638 7.02422C10.3638 6.36094 10.0684 5.71641 9.51298 5.16328L8.21689 3.86719C8.14189 3.79219 8.06689 3.71719 7.99423 3.64219C7.92157 3.56719 7.84657 3.49219 7.77392 3.41953L7.67079 3.31406C7.41532 3.05391 7.15048 2.78438 6.88329 2.53828C6.36298 2.02031 5.73251 1.74609 5.06454 1.74609C4.39892 1.74609 3.76376 2.02031 3.22235 2.53828C3.22001 2.54063 3.21767 2.54062 3.21767 2.54297L1.59345 4.16484C0.930167 4.82812 0.552823 5.63672 0.470792 6.56719V6.56953C0.384073 7.67109 0.583292 8.83359 1.09892 10.2281C1.87939 12.3375 3.05126 14.2922 4.78329 16.3781C6.89736 18.8977 9.43564 20.8852 12.3255 22.2844H12.3278C13.4411 22.8164 14.9364 23.4398 16.6239 23.55C16.6263 23.55 16.6286 23.55 16.6309 23.55H16.6427C16.7388 23.5547 16.8395 23.5594 16.945 23.5594C18.1286 23.5594 19.127 23.1305 19.9099 22.2844L19.9216 22.2727C19.931 22.2633 19.938 22.2563 19.945 22.2469C20.1794 21.9656 20.4489 21.7055 20.7513 21.4148C20.9599 21.2156 21.1731 21.0117 21.3794 20.7914C21.9114 20.2359 22.1927 19.5891 22.1903 18.9211C22.188 18.2508 21.902 17.6109 21.363 17.0719L18.7614 14.4656ZM18.5036 20.9977C18.0864 21.443 17.6083 21.6422 16.9567 21.6422C16.8958 21.6422 16.8278 21.6375 16.7575 21.6328C15.4075 21.5461 14.1302 21.0117 13.1692 20.5547C10.5161 19.2773 8.1911 17.4586 6.25751 15.1477C4.67548 13.2422 3.60907 11.4656 2.9036 9.5625C2.48173 8.43047 2.32235 7.55391 2.38798 6.72656C2.43017 6.24375 2.61064 5.85938 2.95517 5.51953L4.56767 3.90703C4.73642 3.74531 4.90985 3.65859 5.07157 3.65859C5.22392 3.65859 5.38564 3.74297 5.55673 3.90938C5.55907 3.91172 5.56142 3.91406 5.56376 3.91641C5.84267 4.17891 6.11454 4.45547 6.40282 4.74609L6.4122 4.75547C6.55048 4.89844 6.70986 5.0625 6.87157 5.21953L8.16532 6.51328C8.54267 6.89062 8.54267 7.15547 8.16532 7.53281C8.02939 7.66875 7.8911 7.80703 7.75517 7.94766L7.65907 8.04609C7.29579 8.41406 6.9536 8.76094 6.58095 9.09141C6.57626 9.09609 6.56923 9.10078 6.56454 9.10781L6.54111 9.13125C6.14501 9.52734 6.0372 10.0008 6.22235 10.5352C6.22704 10.5492 6.23173 10.5609 6.23642 10.5727C6.23876 10.5797 6.24111 10.5867 6.24579 10.5938C6.59267 11.4305 7.08017 12.225 7.83017 13.1742C7.83017 13.1766 7.83251 13.1766 7.83251 13.1789C9.16376 14.8172 10.5677 16.0969 12.1263 17.0859C12.3302 17.2148 12.5411 17.3227 12.738 17.4211C12.8833 17.4937 13.0474 17.5781 13.1833 17.6602C13.1927 17.6672 13.202 17.6719 13.2114 17.6766L13.2184 17.6813C13.2325 17.6883 13.2466 17.6977 13.263 17.7047C13.4669 17.8078 13.6684 17.857 13.877 17.857C14.2333 17.857 14.5614 17.7094 14.8263 17.4305L16.4481 15.8086C16.5653 15.6914 16.7481 15.5508 16.9403 15.5508C17.1184 15.5508 17.2919 15.6891 17.4044 15.8063C17.4067 15.8086 17.4067 15.8086 17.4091 15.8109L20.027 18.4289C20.2849 18.6867 20.4606 18.9914 20.0059 19.4695L20.0036 19.4719C19.8606 19.6266 19.7083 19.7742 19.5466 19.9313C19.5114 19.9641 19.4763 19.9992 19.4411 20.0344C19.113 20.3414 18.7989 20.6461 18.5036 20.9977Z" fill="#6C5DD4"/>
<path d="M23.5334 10.6174C23.1021 8.07915 21.9021 5.76353 20.0623 3.92368C18.2154 2.08149 15.8998 0.881495 13.3592 0.452588C12.8365 0.36587 12.342 0.719776 12.2553 1.24009C12.1685 1.76274 12.5225 2.25728 13.0404 2.34399C15.1896 2.70962 17.1467 3.72681 18.7029 5.28071C20.2592 6.83696 21.274 8.79399 21.6396 10.9409C21.717 11.4049 22.1154 11.7401 22.5865 11.7401C22.5889 11.7401 22.5912 11.7401 22.5935 11.7401C22.6521 11.7401 22.7014 11.7331 22.7389 11.726C22.7412 11.726 22.7435 11.726 22.7459 11.7237C23.0014 11.6815 23.224 11.5432 23.3717 11.3299C23.5217 11.1213 23.5779 10.8682 23.5334 10.6174Z" fill="#6C5DD4"/>
</g>
<defs>
<clipPath id="clip0_1118_4206">
<rect width="24" height="24" fill="white"/>
</clipPath>
</defs>
</svg>
