<svg width="20" height="20" viewBox="0 0 20 20" fill="none" xmlns="http://www.w3.org/2000/svg">
<circle cx="10" cy="10" r="10" fill="#D9D9D9"/>
<circle cx="10" cy="10" r="9.6" stroke="#6A6A6A" stroke-opacity="0.3" stroke-width="0.8"/>
<path d="M13.7344 6.26555C13.3804 5.91148 12.8064 5.91148 12.4524 6.26555L10 8.7179L7.54768 6.26555C7.19361 5.91148 6.61961 5.91148 6.26559 6.26555C5.91157 6.61961 5.91153 7.19366 6.26559 7.54768L8.71789 10L6.26555 12.4524C5.91148 12.8064 5.91148 13.3805 6.26555 13.7345C6.44256 13.9115 6.67455 14 6.90659 14C7.13863 14 7.37062 13.9115 7.54763 13.7345L10 11.2822L12.4524 13.7345C12.6294 13.9115 12.8614 14 13.0934 14C13.3254 14 13.5574 13.9115 13.7344 13.7345C14.0885 13.3804 14.0885 12.8064 13.7344 12.4524L11.2821 10L13.7345 7.54768C14.0885 7.19366 14.0885 6.61961 13.7344 6.26555Z" fill="#6A6A6A"/>
</svg>
