<svg width="26" height="26" viewBox="0 0 26 26" fill="none" xmlns="http://www.w3.org/2000/svg">
<path fill-rule="evenodd" clip-rule="evenodd" d="M2.6268 6.392L2.76036 6.24174C3.24986 5.72986 3.97911 5.47375 4.94744 5.47375H21.5426C22.4551 5.47375 23.1563 5.69647 23.6462 6.14157L23.6629 6.15826C23.763 6.24742 23.8635 6.35293 23.9634 6.47547C23.9634 6.48683 23.9691 6.49784 23.9801 6.50886L23.9968 6.52556C24.3644 6.98201 24.5477 7.62745 24.5477 8.46221V17.9117C24.5367 19.9152 23.535 20.9169 21.5426 20.9169H4.94744C2.95503 20.9059 1.95898 19.9042 1.95898 17.9117V8.46221C1.95898 7.56067 2.1817 6.87048 2.6268 6.392ZM22.0935 7.10989C21.9266 7.06548 21.7429 7.04845 21.5429 7.05981H4.94744C4.8249 7.04879 4.70803 7.05413 4.59684 7.0765L13.1949 15.7914L22.0935 7.10989ZM3.54504 8.27856C3.53402 8.33433 3.53402 8.39543 3.54504 8.46221V17.9117C3.54504 18.858 4.01251 19.3308 4.94744 19.3308H21.5426C22.4885 19.3308 22.9617 18.858 22.9617 17.9117V8.47891L13.7459 17.4777C13.5789 17.6336 13.3899 17.7114 13.1786 17.7114C12.9558 17.7004 12.7665 17.6223 12.6109 17.4777L3.54504 8.27856Z" fill="#6C5DD4"/>
<path fill-rule="evenodd" clip-rule="evenodd" d="M2.62695 6.39171C2.64932 6.35832 2.67704 6.32493 2.71043 6.29154C2.72178 6.26917 2.73814 6.25247 2.76051 6.24146L2.62695 6.39171Z" fill="#6C5DD4"/>
</svg>
