<svg width="23" height="24" viewBox="0 0 23 24" fill="none" xmlns="http://www.w3.org/2000/svg">
<path d="M23 12.9478V20.2535C23 22.3193 21.3878 24 19.4062 24H3.59375C1.61216 24 0 22.3193 0 20.2535V12.9478C0 10.8819 1.61216 9.20123 3.59375 9.20123H6.19922C6.69543 9.20123 7.09766 9.62056 7.09766 10.1379C7.09766 10.6552 6.69543 11.0745 6.19922 11.0745H3.59375C2.60295 11.0745 1.79688 11.9148 1.79688 12.9478V20.2535C1.79688 21.2864 2.60295 22.1267 3.59375 22.1267H19.4062C20.397 22.1267 21.2031 21.2864 21.2031 20.2535V12.9478C21.2031 11.9148 20.397 11.0745 19.4062 11.0745H16.8008C16.3046 11.0745 15.9023 10.6552 15.9023 10.1379C15.9023 9.62056 16.3046 9.20123 16.8008 9.20123H19.4062C21.3879 9.20123 23 10.8819 23 12.9478ZM7.14819 5.62188C10.3592 2.30526 10.2285 2.34113 10.5912 2.12299L10.6121 17.5151C10.6128 18.0319 11.0149 18.4504 11.5106 18.4504H11.5119C12.0081 18.4496 12.4097 18.0298 12.409 17.5124L12.3882 2.12322C12.7501 2.34104 12.6156 2.30086 15.8519 5.6438C16.2027 6.00955 16.7715 6.0096 17.1224 5.6438C17.4733 5.27799 17.4733 4.68496 17.1224 4.31921L14.0306 1.09606C12.6368 -0.35703 10.3581 -0.373655 8.9483 1.09606L5.87762 4.29729C5.52674 4.66309 5.52674 5.25612 5.87762 5.62188C6.22851 5.98764 6.79735 5.98768 7.14819 5.62188Z" fill="white"/>
</svg>
